<?xml version="1.0" standalone="no"?>
<!DOCTYPE svg PUBLIC "-//W3C//DTD SVG 20010904//EN"
 "http://www.w3.org/TR/2001/REC-SVG-20010904/DTD/svg10.dtd">
<svg version="1.0" xmlns="http://www.w3.org/2000/svg"
 width="300.000000pt" height="300.000000pt" viewBox="0 0 300.000000 300.000000"
 preserveAspectRatio="xMidYMid meet">
<metadata>
Created by potrace 1.14, written by Peter Selinger 2001-2017
</metadata>
<g transform="translate(0.000000,300.000000) scale(0.100000,-0.100000)"
fill="#000000" stroke="none">
<path d="M267 2359 c-90 -21 -139 -69 -157 -155 -18 -87 -9 -430 12 -469 24
-45 59 -74 116 -95 50 -19 88 -20 1259 -19 1144 0 1211 1 1261 18 66 23 107
61 126 117 21 62 22 400 2 469 -19 63 -59 102 -128 126 -49 17 -99 18 -619 19
l-566 0 0 -245 0 -245 66 -1 c110 -2 205 2 211 7 2 3 5 65 5 137 l0 132 351 0
c374 0 395 -3 410 -49 11 -32 6 -214 -6 -236 -6 -11 -25 -23 -43 -28 -17 -5
-504 -8 -1082 -8 -1116 1 -1085 0 -1101 48 -11 35 -7 214 6 237 6 12 23 24 38
28 15 4 182 8 372 8 l345 0 0 -137 0 -138 142 0 142 0 0 245 0 245 -562 -1
c-309 -1 -579 -5 -600 -10z"/>
<path d="M1195 1570 l-50 -5 0 -194 c1 -287 -29 -378 -162 -500 -87 -80 -282
-173 -412 -196 -19 -3 -37 -7 -40 -9 -3 -2 -28 -7 -56 -10 -98 -13 -130 -18
-134 -22 -2 -2 241 -4 542 -4 l546 0 0 469 0 470 -92 3 c-51 2 -115 1 -142 -2z"/>
<path d="M1609 1572 l-36 -3 0 -470 0 -469 545 0 c300 0 543 2 541 4 -2 2 -42
9 -89 16 -320 42 -575 182 -663 362 -44 90 -53 155 -52 366 0 124 -3 192 -10
192 -80 3 -208 4 -236 2z"/>
</g>
</svg>
